# xmcd
#
# Track frame offsets: 
#        150
#        15097
#        27967
#        51672
#        70238
#        86073
#        106751
#        122384
#        146185
#        164306
#        181696
#        197966
#        213536
#
# Disc length: 3134 seconds
#
# Revision: 0
# Processed by: cddbd v1.5.2PL0 Copyright (c) Steve Scherf et al.
# Submitted via: ExactAudioCopy v0.99pb4
#
DISCID=b10c3c0d
DTITLE=Kanye West - Graduation
DYEAR=2007
DGENRE=Hip-Hop
TTITLE0=Good Morning
TTITLE1=Champion
TTITLE2=Stronger
TTITLE3=I Wonder
TTITLE4=Good Life
TTITLE5=Can't Tell Me Nothing
TTITLE6=Barry Bonds
TTITLE7=Drunk And Hot Girls
TTITLE8=Flashing Lights
TTITLE9=Everything I Am
TTITLE10=The Glory
TTITLE11=Homecoming
TTITLE12=Big Brother
EXTD=
EXTT0=
EXTT1=
EXTT2=
EXTT3=
EXTT4=
EXTT5=
EXTT6=
EXTT7=
EXTT8=
EXTT9=
EXTT10=
EXTT11=
EXTT12=
PLAYORDER=
